# xmcd
#
# Track frame offsets: 
#        150
#        16125
#        39263
#        60001
#        78376
#        99301
#        116476
#        136464
#        154014
#        171002
#        191102
#        211277
#        227290
#        248740
#
# Disc length: 3608 seconds
#
# Revision: 0
# Processed by: cddbd v1.5.2PL0 Copyright (c) Steve Scherf et al.
# Submitted via: ExactAudioCopyFreeDBPlugin 1.0
#
DISCID=9f0e160e
DTITLE=Lam Nhat Tien - Doi Gian
DYEAR=1900
DGENRE=
TTITLE0=Doi gian
TTITLE1=Thanh Ha - Buon trong dem mua
TTITLE2=Luu Bich - Hanh phuc trong tam tay
TTITLE3=Yeu em am tham
TTITLE4=Ngoc Huong - Tuoi chom buon
TTITLE5=Luu Bich - Trai tim lam lo
TTITLE6=Loan Chau - Tan tro 
TTITLE7=Nhung loi doi gian
TTITLE8=Luu Bich - Tuyet xua
TTITLE9=Loan Chau - Ben em la bien rong
TTITLE10=Thanh Truc - Giot sau trong mua
TTITLE11=Luu Bich - Giac mo sa mac
TTITLE12=Thanh Ha - Ky niem gap go
TTITLE13=Nguyen Hung - vang bong em
EXTD=
EXTT0=
EXTT1=
EXTT2=
EXTT3=
EXTT4=
EXTT5=
EXTT6=
EXTT7=
EXTT8=
EXTT9=
EXTT10=
EXTT11=
EXTT12=
EXTT13=
PLAYORDER=
